<?xml version="1.0" encoding="UTF-8" standalone="no"?>
<!-- Created with Inkscape (http://www.inkscape.org/) -->

<svg
   xmlns:dc="http://purl.org/dc/elements/1.1/"
   xmlns:cc="http://creativecommons.org/ns#"
   xmlns:rdf="http://www.w3.org/1999/02/22-rdf-syntax-ns#"
   xmlns:svg="http://www.w3.org/2000/svg"
   xmlns="http://www.w3.org/2000/svg"
   xmlns:sodipodi="http://sodipodi.sourceforge.net/DTD/sodipodi-0.dtd"
   xmlns:inkscape="http://www.inkscape.org/namespaces/inkscape"
   width="512"
   height="512"
   viewBox="0 0 135.46667 135.46667"
   version="1.1"
   id="svg8"
   inkscape:version="0.92.3 (2405546, 2018-03-11)"
   sodipodi:docname="bst_512.svg">
  <defs
     id="defs2" />
  <sodipodi:namedview
     id="base"
     pagecolor="#ffffff"
     bordercolor="#666666"
     borderopacity="1.0"
     inkscape:pageopacity="0.0"
     inkscape:pageshadow="2"
     inkscape:zoom="0.5"
     inkscape:cx="358.19496"
     inkscape:cy="294.52019"
     inkscape:document-units="mm"
     inkscape:current-layer="layer1"
     showgrid="false"
     units="px"
     inkscape:window-width="1440"
     inkscape:window-height="795"
     inkscape:window-x="0"
     inkscape:window-y="25"
     inkscape:window-maximized="1" />
  <metadata
     id="metadata5">
    <rdf:RDF>
      <cc:Work
         rdf:about="">
        <dc:format>image/svg+xml</dc:format>
        <dc:type
           rdf:resource="http://purl.org/dc/dcmitype/StillImage" />
        <dc:title></dc:title>
      </cc:Work>
    </rdf:RDF>
  </metadata>
  <g
     inkscape:label="Camada 1"
     inkscape:groupmode="layer"
     id="layer1"
     transform="translate(0,-161.5333)">
    <path
       sodipodi:nodetypes="cccccccccccc"
       inkscape:connector-curvature="0"
       id="path851"
       d="m 7.1163643,229.26663 c -1.331e-4,33.47788 27.1390867,60.6171 60.6169707,60.61697 33.477885,1.4e-4 60.617105,-27.13908 60.616975,-60.61697 1.3e-4,-33.47789 -27.13909,-60.61711 -60.616975,-60.61697 -33.477884,-1.3e-4 -60.6171038,27.13909 -60.6169707,60.61697 z m 13.7293947,29.7372 23.534481,-40.76237 23.533962,-40.76289 23.534481,40.76289 23.534477,40.76237 H 67.914202 Z"
       style="opacity:1;vector-effect:none;fill:white;fill-opacity:1;stroke:none;stroke-width:3.2019999;stroke-linecap:butt;stroke-linejoin:miter;stroke-miterlimit:4;stroke-dasharray:none;stroke-dashoffset:0;stroke-opacity:1" />
    <path
       style="color:black;font-style:normal;font-variant:normal;font-weight:normal;font-stretch:normal;font-size:medium;line-height:normal;font-family:sans-serif;font-variant-ligatures:normal;font-variant-position:normal;font-variant-caps:normal;font-variant-numeric:normal;font-variant-alternates:normal;font-feature-settings:normal;text-indent:0;text-align:start;text-decoration:none;text-decoration-line:none;text-decoration-style:solid;text-decoration-color:black;letter-spacing:normal;word-spacing:normal;text-transform:none;writing-mode:lr-tb;direction:ltr;text-orientation:mixed;dominant-baseline:auto;baseline-shift:baseline;text-anchor:start;white-space:normal;shape-padding:0;clip-rule:nonzero;display:inline;overflow:visible;visibility:visible;opacity:1;isolation:auto;mix-blend-mode:normal;color-interpolation:sRGB;color-interpolation-filters:linearRGB;solid-color:black;solid-opacity:1;vector-effect:none;fill:black;fill-opacity:1;fill-rule:nonzero;stroke:none;stroke-width:3.2019999;stroke-linecap:butt;stroke-linejoin:miter;stroke-miterlimit:4;stroke-dasharray:none;stroke-dashoffset:0;stroke-opacity:1;color-rendering:auto;image-rendering:auto;shape-rendering:auto;text-rendering:auto;enable-background:accumulate"
       d="m 67.732422,167.04883 c -34.343133,-1.4e-4 -62.2169335,27.87562 -62.216797,62.21875 -1.365e-4,34.34313 27.873664,62.21693 62.216797,62.2168 34.343138,1.4e-4 62.218888,-27.87366 62.218748,-62.2168 1.4e-4,-34.34314 -27.87561,-62.2189 -62.218748,-62.21875 z m 0,3.20117 c 32.612638,-1.4e-4 59.017708,26.40494 59.017578,59.01758 4e-5,11.50793 -3.33938,22.20688 -9.02734,31.28125 L 92.835938,217.44141 67.914062,174.27734 42.994141,217.44141 18.072266,260.60547 H 20.845703 67.914062 117.6875 C 107.24975,277.21575 88.81326,288.28329 67.732422,288.2832 35.119787,288.28333 8.7166672,261.88021 8.7167969,229.26758 8.7166672,196.65495 35.119787,170.24987 67.732422,170.25 Z m 0.18164,10.43164 22.148438,38.35938 22.14648,38.36132 H 67.914062 23.619141 l 22.148437,-38.36132 z"
       id="path10"
       inkscape:connector-curvature="0" />
    <path
       sodipodi:type="star"
       style="opacity:1;vector-effect:none;fill:black;fill-opacity:1;stroke:none;stroke-width:4.6477685;stroke-linecap:butt;stroke-linejoin:miter;stroke-miterlimit:4;stroke-dasharray:none;stroke-dashoffset:0;stroke-opacity:1"
       id="path14"
       sodipodi:sides="3"
       sodipodi:cx="67.816887"
       sodipodi:cy="231.03514"
       sodipodi:r1="54.350105"
       sodipodi:r2="27.175053"
       sodipodi:arg1="0"
       sodipodi:arg2="1.0471976"
       inkscape:flatsided="false"
       inkscape:rounded="0"
       inkscape:randomized="0"
       d="m 122.16699,231.03514 -40.762578,23.53429 -40.762578,23.53428 0,-47.06857 0,-47.06857 40.76258,23.53429 z"
       inkscape:transform-center-x="-13.587527"
       transform="rotate(-90,68.262427,231.38324)" />
  </g>
</svg>
