<?xml version="1.0" encoding="UTF-8" standalone="no"?>
<svg
   width="64.521591"
   height="65.279213"
   viewBox="0 0 17.071337 17.271792"
   version="1.1"
   id="svg8"
   inkscape:version="1.1 (c68e22c387, 2021-05-23)"
   sodipodi:docname="C45JEBB.svg"
   xmlns:inkscape="http://www.inkscape.org/namespaces/inkscape"
   xmlns:sodipodi="http://sodipodi.sourceforge.net/DTD/sodipodi-0.dtd"
   xmlns="http://www.w3.org/2000/svg"
   xmlns:svg="http://www.w3.org/2000/svg"
   xmlns:rdf="http://www.w3.org/1999/02/22-rdf-syntax-ns#"
   xmlns:cc="http://creativecommons.org/ns#"
   xmlns:dc="http://purl.org/dc/elements/1.1/">
  <defs
     id="defs2" />
  <sodipodi:namedview
     id="base"
     pagecolor="#ffffff"
     bordercolor="#666666"
     borderopacity="1.0"
     inkscape:pageopacity="0.0"
     inkscape:pageshadow="2"
     inkscape:zoom="7.9195959"
     inkscape:cx="9.343911"
     inkscape:cy="25.695755"
     inkscape:document-units="mm"
     inkscape:current-layer="layer1"
     showgrid="false"
     fit-margin-top="0"
     fit-margin-left="0"
     fit-margin-right="0"
     fit-margin-bottom="0"
     inkscape:window-width="1920"
     inkscape:window-height="1017"
     inkscape:window-x="-8"
     inkscape:window-y="-8"
     inkscape:window-maximized="1"
     inkscape:document-rotation="0"
     units="px"
     inkscape:pagecheckerboard="0" />
  <metadata
     id="metadata5">
    <rdf:RDF>
      <cc:Work
         rdf:about="">
        <dc:format>image/svg+xml</dc:format>
        <dc:type
           rdf:resource="http://purl.org/dc/dcmitype/StillImage" />
      </cc:Work>
    </rdf:RDF>
  </metadata>
  <g
     inkscape:label="Camada 1"
     inkscape:groupmode="layer"
     id="layer1"
     transform="translate(-33.206364,-52.936718)">
    <path
       id="path924"
       style="color:#000000;font-style:normal;font-variant:normal;font-weight:normal;font-stretch:normal;font-size:medium;line-height:normal;font-family:sans-serif;font-variant-ligatures:normal;font-variant-position:normal;font-variant-caps:normal;font-variant-numeric:normal;font-variant-alternates:normal;font-variant-east-asian:normal;font-feature-settings:normal;font-variation-settings:normal;text-indent:0;text-align:start;text-decoration:none;text-decoration-line:none;text-decoration-style:solid;text-decoration-color:#000000;letter-spacing:normal;word-spacing:normal;text-transform:none;writing-mode:lr-tb;direction:ltr;text-orientation:mixed;dominant-baseline:auto;baseline-shift:baseline;text-anchor:start;white-space:normal;shape-padding:0;shape-margin:0;inline-size:0;clip-rule:nonzero;display:inline;overflow:visible;visibility:visible;opacity:1;isolation:auto;mix-blend-mode:normal;color-interpolation:sRGB;color-interpolation-filters:linearRGB;solid-color:#000000;solid-opacity:1;vector-effect:none;fill:#000000;fill-opacity:1;fill-rule:nonzero;stroke:none;stroke-width:1.2909;stroke-linecap:butt;stroke-linejoin:miter;stroke-miterlimit:4;stroke-dasharray:none;stroke-dashoffset:0;stroke-opacity:1;color-rendering:auto;image-rendering:auto;shape-rendering:auto;text-rendering:auto;enable-background:accumulate;stop-color:#000000;stop-opacity:1"
       d="m 43.422551,53.483225 c 1e-6,4.9e-4 2e-6,0.0011 0,0.0016 l 1.250053,-5.16e-4 c -2e-6,1.021225 -0.544964,1.965205 -1.42937,2.475818 -0.884406,0.510612 -1.973816,0.510611 -2.858223,0 -0.884405,-0.510611 -1.429366,-1.454079 -1.42937,-2.475301 l 1.250053,-5.16e-4 v -5.16e-4 h -2.500106 c 0,1.465801 0.785233,2.825537 2.054655,3.558439 0.420721,0.242903 0.874774,0.403918 1.339453,0.485758 l -0.0078,4.371826 2.899712,2.568983 -10e-4,0.001 c -0.310698,0.413689 -0.546317,0.887864 -0.684196,1.403016 -0.378973,1.415963 0.02776,2.932567 1.064534,3.96875 l 1.767335,-1.768368 c -3.44e-4,-3.44e-4 -7.15e-4,-7.14e-4 -10e-4,-0.001 l -0.883151,0.884701 c -0.72232,-0.721912 -1.005067,-1.774572 -0.74104,-2.761072 0.264033,-0.986501 1.034198,-1.756988 2.020549,-2.021582 0.98635,-0.264594 2.039267,0.01655 2.761588,0.738456 l -0.883667,0.884701 5.3e-4,5.29e-4 1.767334,-1.768368 C 49.14265,62.99338 47.625389,62.587317 46.20964,62.967096 c -0.469218,0.125871 -0.903473,0.333278 -1.289844,0.604097 l -2.528158,-2.197429 5.29e-4,-3.824056 c 0.51224,-0.07268 1.014042,-0.240822 1.475879,-0.507463 1.269422,-0.732901 2.054657,-2.093152 2.054655,-3.558956 z"
       sodipodi:nodetypes="cccssccccsccccccccccsccccscccscc" />
    <g
       id="path8"
       transform="rotate(45)"
       style="opacity:1" />
  </g>
</svg>
