<?xml version="1.0" encoding="UTF-8" standalone="no"?>
<!-- Created with Inkscape (http://www.inkscape.org/) -->

<svg
   width="154.97025mm"
   height="154.97025mm"
   viewBox="0 0 154.97025 154.97025"
   version="1.1"
   id="svg8"
   inkscape:version="1.1 (c68e22c387, 2021-05-23)"
   sodipodi:docname="caminhao_pipa2.svg"
   xmlns:inkscape="http://www.inkscape.org/namespaces/inkscape"
   xmlns:sodipodi="http://sodipodi.sourceforge.net/DTD/sodipodi-0.dtd"
   xmlns="http://www.w3.org/2000/svg"
   xmlns:svg="http://www.w3.org/2000/svg"
   xmlns:rdf="http://www.w3.org/1999/02/22-rdf-syntax-ns#"
   xmlns:cc="http://creativecommons.org/ns#"
   xmlns:dc="http://purl.org/dc/elements/1.1/">
  <defs
     id="defs2" />
  <sodipodi:namedview
     id="base"
     pagecolor="#ffffff"
     bordercolor="#666666"
     borderopacity="1.0"
     inkscape:pageopacity="0.0"
     inkscape:pageshadow="2"
     inkscape:zoom="0.12374369"
     inkscape:cx="1341.4826"
     inkscape:cy="743.47227"
     inkscape:document-units="mm"
     inkscape:current-layer="layer1"
     showgrid="false"
     fit-margin-top="0"
     fit-margin-left="0"
     fit-margin-right="0"
     fit-margin-bottom="0"
     inkscape:window-width="1920"
     inkscape:window-height="1009"
     inkscape:window-x="1072"
     inkscape:window-y="394"
     inkscape:window-maximized="1"
     inkscape:pagecheckerboard="0" />
  <metadata
     id="metadata5">
    <rdf:RDF>
      <cc:Work
         rdf:about="">
        <dc:format>image/svg+xml</dc:format>
        <dc:type
           rdf:resource="http://purl.org/dc/dcmitype/StillImage" />
      </cc:Work>
    </rdf:RDF>
  </metadata>
  <g
     inkscape:label="Camada 1"
     inkscape:groupmode="layer"
     id="layer1"
     transform="translate(-30.238096,-58.119041)">
    <path
       style="opacity:1;vector-effect:none;fill:#000000;fill-opacity:1;fill-rule:nonzero;stroke:none;stroke-width:0.30304578;stroke-linecap:butt;stroke-linejoin:miter;stroke-miterlimit:4;stroke-dasharray:0.90913728, 0.30304576;stroke-dashoffset:0;stroke-opacity:1;marker:none;paint-order:stroke fill markers"
       d="m 72.137711,171.21859 c -4.647755,-1.52323 -7.545551,-4.4218 -8.955034,-8.95742 -0.274085,-0.88199 -0.499256,-2.11477 -0.50038,-2.73951 l -0.0021,-1.1359 H 58.45428 c -3.921016,0 -4.269298,-0.0404 -4.827225,-0.5602 -0.928518,-0.86505 -1.103101,-1.63997 -1.103101,-4.89634 0,-3.40768 0.261483,-4.45192 1.289529,-5.14979 0.681623,-0.4627 2.545617,-0.48864 39.936796,-0.55566 l 39.221811,-0.0703 v -17.65388 c 0,-11.59698 0.0944,-17.83029 0.27519,-18.16807 0.69303,-1.29495 0.99523,-1.32269 14.2109,-1.3046 6.80597,0.009 12.63735,0.12284 12.95862,0.25228 0.72255,0.29111 9.60714,9.17826 10.28213,10.2851 0.45188,0.74097 0.49078,1.56059 0.4917,10.35951 l 0.001,9.55489 h 1.03304 c 1.31892,0 2.33794,0.78692 2.69804,2.0835 0.15125,0.54456 0.27499,3.63607 0.27499,6.87003 0,9.03572 0.0552,8.95353 -6.01584,8.95353 h -4.07581 l -0.18642,1.49205 c -0.38237,3.06039 -1.74819,5.76666 -4.03547,7.99602 -2.43843,2.37666 -4.86798,3.50483 -8.16807,3.79284 -2.01407,0.17578 -4.56727,-0.45884 -6.74674,-1.67697 -1.58596,-0.88642 -4.09338,-3.16342 -4.33266,-3.93453 -0.10015,-0.32272 -0.41997,-0.92444 -0.71072,-1.33716 -0.71022,-1.00814 -1.53483,-3.79538 -1.53735,-5.19635 l -0.002,-1.1359 h -12.28229 -12.28229 l -0.14852,1.00226 c -0.69078,4.66141 -2.55871,7.69628 -6.28875,10.2174 -2.22463,1.50363 -3.98209,2.01496 -6.81679,1.98337 -1.924045,-0.0214 -2.73498,-0.1627 -4.052155,-0.70584 -2.915071,-1.20203 -5.319765,-3.18586 -6.725034,-5.54802 -0.864631,-1.45339 -1.31854,-2.96528 -1.785405,-5.94691 -0.226751,-1.44814 -0.577012,-1.23155 -0.792081,0.48979 -0.489217,3.91557 -2.679464,7.3655 -6.244291,9.83558 -2.604002,1.80433 -6.907963,2.46328 -9.8313,1.5052 z m 5.317771,-7.85543 c 1.812658,-0.77558 2.864868,-2.4878 2.864149,-4.66071 -5.29e-4,-1.72662 -0.696169,-2.96405 -2.177444,-3.87356 -2.492598,-1.53046 -5.875253,-0.73153 -7.185282,1.69705 -0.194953,0.36141 -0.355433,1.38818 -0.356624,2.28173 -0.0026,1.91725 0.673473,3.23241 2.191941,4.26423 1.126871,0.76573 3.245138,0.89804 4.66326,0.29126 z m 27.110728,-0.33301 c 2.42538,-1.79688 2.95696,-5.45487 1.064,-7.32167 -1.26812,-1.25059 -2.22504,-1.65249 -3.93465,-1.65249 -1.6778,0 -2.293873,0.23952 -3.361059,1.3067 -1.475647,1.47565 -1.835264,3.65378 -0.918329,5.56213 1.113166,2.31674 1.986857,2.8337 4.610978,2.72831 1.31262,-0.0527 1.9955,-0.22027 2.53906,-0.62298 z m 49.59563,0.33301 c 1.81265,-0.77558 2.86486,-2.4878 2.86414,-4.66071 -5.3e-4,-1.72662 -0.69616,-2.96405 -2.17744,-3.87356 -2.4926,-1.53046 -5.87525,-0.73153 -7.18528,1.69705 -0.59586,1.10462 -0.45696,3.7475 0.25772,4.90387 1.27256,2.05906 3.98395,2.89902 6.24086,1.93335 z m 8.69103,-30.42146 c 0.22419,-0.22418 0.32073,-1.68214 0.32073,-4.84347 v -4.52275 l -2.94913,-2.90734 -2.94913,-2.90735 h -7.84669 c -6.9086,0 -7.86609,0.0505 -8.00892,0.42277 -0.2117,0.55166 -0.2117,14.10444 0,14.6561 0.14411,0.37555 1.33196,0.42276 10.63732,0.42276 7.79094,0 10.55728,-0.0822 10.79582,-0.32072 z"
       id="path4498"
       inkscape:connector-curvature="0" />
    <path
       style="opacity:1;vector-effect:none;fill:#000000;fill-opacity:1;fill-rule:nonzero;stroke:none;stroke-width:0.334138;stroke-linecap:butt;stroke-linejoin:miter;stroke-miterlimit:4;stroke-dasharray:1.00241, 0.334138;stroke-dashoffset:0;stroke-opacity:1;marker:none;paint-order:stroke fill markers"
       d="m 48.329496,142.59917 c -6.578789,-2.72611 -9.629911,-9.71861 -10.858669,-15.73733 -0.575947,-3.18645 -0.575822,-8.60053 2.74e-4,-11.78779 0.536949,-2.9707 1.738414,-6.25665 3.355568,-9.17736 1.114566,-2.01299 3.244032,-4.70224 3.723438,-4.70224 0.119776,0 0.812791,-0.39603 1.540037,-0.88007 1.200058,-0.798718 2.177766,-1.133358 4.95426,-1.695646 l 0.934884,-0.189329 18.697712,0.04797 h 11.218627 11.218627 v -1.325808 c 0,-1.152242 -0.09151,-1.349912 -0.69903,-1.509938 -1.576954,-0.415384 -2.107103,-2.06853 -1.026914,-3.202191 0.547747,-0.574862 0.958855,-0.603792 8.579575,-0.603792 7.994815,0 8.004985,8.96e-4 8.629705,0.698723 0.344,0.384301 0.62546,0.98578 0.62546,1.336624 0,0.668063 -1.2337,1.889311 -1.90857,1.889311 -0.2718,0 -0.39269,0.405407 -0.39269,1.316908 v 1.316912 l 4.14592,0.147716 4.14592,0.147722 2.45705,1.27741 c 3.43264,1.784628 5.88963,4.529248 7.15526,7.992918 1.54947,4.24049 1.99261,5.83996 2.40873,8.69424 0.75595,12.81727 -2.35316,21.45438 -11.79694,26.35304 l -32.807934,0.0676 c -30.939304,0.0637 -32.892935,0.0367 -34.3003,-0.47559 z"
       id="path4496"
       inkscape:connector-curvature="0"
       sodipodi:nodetypes="cccssccccccscsscssscccssccscc" />
    <path
       style="opacity:1;vector-effect:none;fill:#ffffff;fill-opacity:1;fill-rule:nonzero;stroke:none;stroke-width:0.334138;stroke-linecap:butt;stroke-linejoin:miter;stroke-miterlimit:4;stroke-dasharray:1.00241, 0.334138;stroke-dashoffset:0;stroke-opacity:1;marker:none;paint-order:stroke fill markers"
       d="m 53.444199,138.47645 c -9.457344,-6.5481 -9.696144,-6.66621 -9.696144,-20.96595 l 77.008345,-0.0725 c -0.4009,15.37253 -0.64378,14.95279 -11.22243,21.06038 z"
       id="path824"
       inkscape:connector-curvature="0"
       sodipodi:nodetypes="ccccc" />
  </g>
</svg>
