<?xml version="1.0" encoding="UTF-8" standalone="no"?>
<!-- Created with Inkscape (http://www.inkscape.org/) -->

<svg
   width="290.08621"
   height="290.08621"
   viewBox="0 0 76.751978 76.751978"
   version="1.1"
   id="svg5"
   sodipodi:docname="cmb.svg"
   inkscape:version="1.1 (c68e22c387, 2021-05-23)"
   xmlns:inkscape="http://www.inkscape.org/namespaces/inkscape"
   xmlns:sodipodi="http://sodipodi.sourceforge.net/DTD/sodipodi-0.dtd"
   xmlns="http://www.w3.org/2000/svg"
   xmlns:svg="http://www.w3.org/2000/svg">
  <sodipodi:namedview
     id="namedview7"
     pagecolor="#ffffff"
     bordercolor="#666666"
     borderopacity="1.0"
     inkscape:pageshadow="2"
     inkscape:pageopacity="0.0"
     inkscape:pagecheckerboard="0"
     showgrid="false"
     inkscape:zoom="1.1651709"
     inkscape:cx="67.801215"
     inkscape:cy="194.82121"
     inkscape:window-width="1920"
     inkscape:window-height="1009"
     inkscape:window-x="1912"
     inkscape:window-y="-8"
     inkscape:window-maximized="1"
     inkscape:current-layer="svg5" />
  <defs
     id="defs2" />
  <path
     id="path1370"
     style="fill:#000000;fill-opacity:1;stroke:none;stroke-width:0.30152;stroke-linecap:round;stroke-linejoin:round;paint-order:stroke fill markers;stop-color:#000000"
     d="M 145.04297 5 A 140.0431 140.0431 0 0 0 5 145.04297 A 140.0431 140.0431 0 0 0 145.04297 285.08594 A 140.0431 140.0431 0 0 0 285.08594 145.04297 A 140.0431 140.0431 0 0 0 145.04297 5 z M 150.43555 23.158203 C 151.15763 23.329956 151.83115 23.482058 152.64844 23.691406 C 171.25146 28.456094 186.22969 36.069456 201.89258 48.746094 C 204.86733 51.153672 213.54718 59.762576 216.87305 63.666016 L 217.88281 64.849609 L 190.44922 92.304688 C 182.35793 100.40291 174.97876 107.76605 169.60938 113.10156 C 166.92466 115.76932 164.74023 117.9283 163.22656 119.41797 C 162.94881 119.69138 162.81958 119.81792 162.58789 120.04492 C 159.00781 117.41723 153.91737 115.39372 149.27539 114.75391 L 150.25 114.88672 L 150.25 68.519531 C 150.25 44.342623 150.25443 32.068368 150.33984 25.908203 C 150.36252 24.282205 150.40153 24.020873 150.43555 23.158203 z M 128.03516 36.349609 C 129.04845 36.359776 130.05706 36.383399 131.06445 36.421875 C 134.70119 36.560776 138.4987 36.774566 139.72852 36.876953 L 139.81445 75.822266 L 139.89648 114.87305 L 140.89258 114.73828 C 136.25793 115.35199 131.62134 117.20332 127.45312 120.02344 C 127.11535 119.68845 126.8841 119.45962 126.44727 119.02539 C 124.68053 117.2692 122.12966 114.72761 118.98438 111.58984 C 112.69383 105.31437 104.02825 96.655695 94.507812 87.132812 C 84.989152 77.61171 76.351571 68.940775 70.109375 62.642578 C 67.018451 59.523943 64.536534 57.007854 62.806641 55.242188 C 63.176014 54.688294 64.53328 53.946978 65.947266 53.126953 C 66.959964 52.491981 68.541259 51.603739 70.353516 50.650391 C 73.978014 48.743706 78.594078 46.5481 81.976562 45.203125 C 97.018768 39.221909 112.83579 36.197105 128.03516 36.349609 z M 234.98438 62.587891 C 235.34426 63.180449 235.64157 63.648642 236.05078 64.34375 C 237.65028 67.060626 239.50215 70.352481 240.53906 72.390625 C 250.27346 91.524793 254.9502 114.19571 253.53711 135.33398 C 253.42901 136.95178 253.31217 138.46389 253.20898 139.64648 C 252.37409 139.69089 251.67364 139.74081 249.73047 139.76953 C 244.26973 139.84898 233.852 139.85938 214.18164 139.85938 L 175.22266 139.85938 L 175.35547 140.83398 C 174.67723 135.91338 172.36405 130.29111 169.38477 126.36523 L 170.11523 127.32617 L 202.83984 94.599609 C 212.35662 85.081784 221.03338 76.429331 227.34375 70.158203 C 230.49894 67.022632 233.06146 64.480807 234.83984 62.728516 C 234.90221 62.667212 234.9239 62.647267 234.98438 62.587891 z M 64.886719 72.320312 C 65.257732 72.671933 65.538266 72.927538 66.009766 73.382812 C 67.788052 75.099871 70.211697 77.48707 72.830078 80.111328 C 78.092949 85.38604 91.262101 98.55802 102.10156 109.38867 C 107.5172 114.79993 112.44065 119.74952 116.00586 123.35547 C 117.74619 125.11565 119.13764 126.52675 120.125 127.54102 C 117.65688 130.90058 115.74389 135.41111 114.99023 139.85938 L 68.550781 139.85938 C 47.484288 139.85937 35.224533 139.8404 28.265625 139.76953 C 25.673848 139.74311 24.442723 139.70192 23.162109 139.66016 C 23.529328 138.15178 24.031987 136.27668 24.611328 134.26758 C 25.805954 130.12463 27.303855 125.47658 28.34375 122.83789 C 29.16085 120.76455 30.198741 118.30013 31.123047 116.20703 C 32.047353 114.11391 32.975131 112.21789 33.132812 111.95117 C 33.440047 111.43106 33.975992 110.44947 34.457031 109.55078 C 36.723784 105.31577 37.868069 103.35023 39.306641 101.1875 C 40.206198 99.835121 41.563402 97.796587 42.320312 96.662109 C 44.349276 93.621052 49.790233 86.937325 53.636719 82.837891 C 55.388042 80.971401 58.632917 77.874981 61.453125 75.322266 C 62.764969 74.134848 63.94582 73.109905 64.886719 72.320312 z M 144.50586 124.93945 C 144.96813 124.94406 145.45888 124.95823 145.98828 124.98242 C 151.04574 125.21558 153.34834 126.06205 157.51172 129.23828 C 160.23865 131.31862 159.5241 130.56162 161.7832 133.90039 C 164.76672 138.30887 165.93781 144.5061 164.79492 149.34375 C 163.41524 155.18373 159.28698 160.43194 154.25 162.90625 C 149.69937 165.14165 144.31256 165.72761 140.25195 164.62305 C 136.0425 163.478 133.39999 161.88776 130.30664 158.62305 C 128.1367 156.33284 127.08131 154.59193 125.91797 151.32422 C 125.00291 148.75367 124.70752 143.4004 125.35352 140.62891 C 126.69049 134.89281 130.94198 129.51747 135.92578 127.11133 C 139.45344 125.40819 141.26979 124.90733 144.50586 124.93945 z M 175.35156 149.23633 L 175.35352 149.24023 L 175.21875 150.21094 L 221.58984 150.21094 C 243.6647 150.21094 255.92738 150.22388 262.63086 150.29883 C 264.89846 150.3243 265.78649 150.36687 266.92383 150.40625 C 266.70537 151.29566 266.49194 152.17073 266.20508 153.24805 C 265.39271 156.29953 264.38345 159.80385 263.67773 161.91797 C 261.18778 169.37728 258.57787 175.22633 254.04883 183.47852 C 247.58429 195.2576 238.0413 206.73532 225.89258 217.24414 C 225.65228 217.4522 225.47753 217.57936 225.25 217.76758 C 225.14795 217.6712 225.10299 217.63128 224.99414 217.52734 C 223.7588 216.34885 222.07691 214.69685 220.27344 212.88086 L 204.55273 197.01367 C 200.7633 193.33528 195.457 188.09571 189.30469 181.94336 L 170.01367 162.65234 L 170.26367 162.27539 C 173.00247 158.15563 174.7149 153.81311 175.35156 149.23633 z M 114.76367 149.24609 C 115.46866 154.22785 117.90908 160.09806 120.94727 163.91992 L 120.02148 162.75391 L 87.328125 195.44336 C 77.807106 204.96282 69.129112 213.61623 62.818359 219.89062 C 59.662972 223.02786 57.098316 225.56972 55.320312 227.32422 C 55.263393 227.38016 55.246776 227.3987 55.191406 227.45312 C 54.759096 226.75255 54.380762 226.15733 53.880859 225.32031 C 41.11425 203.94531 35.177692 180.05453 36.580078 155.77539 C 36.695769 153.77189 36.826861 151.88718 36.939453 150.48633 C 36.940965 150.45915 36.943733 150.45066 36.945312 150.42383 C 37.919565 150.37734 38.94522 150.32988 41.169922 150.30078 C 46.887485 150.22549 57.298195 150.21094 75.966797 150.21094 L 114.90039 150.21094 L 114.76367 149.24609 z M 126.45117 169.38086 C 130.28135 172.30225 136.01721 174.64683 140.875 175.31641 L 139.90039 175.17969 L 139.90039 221.54883 C 139.90039 244.78873 139.89263 257.05742 139.8125 263.45703 C 139.78793 265.39831 139.74678 265.94702 139.70898 266.92773 C 139.66854 266.92018 139.63614 266.91759 139.5957 266.90625 C 136.00576 266.09342 130.88676 264.56244 126.84766 263.18359 C 124.43862 262.35047 121.01579 260.90639 118.79297 259.97852 C 118.5852 259.9103 118.21877 259.77371 117.73828 259.57227 C 116.71841 259.14488 115.27001 258.47224 113.6543 257.67578 C 110.42286 256.0829 106.48301 253.97769 103.51758 252.19727 C 95.477688 247.37017 84.180143 238.29901 78.390625 232.05859 C 76.315623 229.82198 74.402789 227.66794 73.037109 226.05469 C 72.756128 225.72277 72.620987 225.54292 72.390625 225.26172 C 72.589568 225.05683 72.689018 224.94943 72.921875 224.71094 C 74.403004 223.19331 76.556283 221.00836 79.212891 218.32422 C 84.526116 212.95593 91.856178 205.58962 99.921875 197.52539 L 127.36914 170.08203 L 126.45117 169.38281 L 126.45117 169.38086 z M 162.64258 169.97461 C 163.68081 171.14354 164.60806 172.3354 165.83398 173.4668 C 167.04733 174.61271 168.80116 176.30535 170.94922 178.40234 C 175.24529 182.59641 181.12538 188.41734 187.54102 194.83789 L 220.65625 227.93945 C 223.25532 230.5372 225.61961 232.92068 227.32422 234.6582 C 227.42589 234.76176 227.46537 234.80527 227.5625 234.9043 C 227.23266 235.11304 226.84421 235.34636 226.60156 235.50586 C 223.8642 237.30325 214.62101 242.13397 210.25195 243.99414 C 206.76613 245.47832 198.86162 248.25018 196.7207 248.79492 C 195.61175 249.0771 193.87754 249.54259 192.76953 249.85742 C 191.97107 250.08431 189.1079 250.7473 186.8457 251.20508 C 175.5843 253.4841 164.42619 254.21608 153.20508 253.41406 C 152.13494 253.33772 151.10367 253.24885 150.25195 253.16797 L 150.25195 214.1582 L 150.25195 175.17969 L 149.27539 175.31641 C 152.10093 174.92696 155.81432 173.87944 158.23828 172.6582 C 159.34296 172.10163 160.94892 171.10489 162.35547 170.16602 L 162.64258 169.97461 z "
     transform="scale(0.26458334)" />
</svg>
