<?xml version="1.0" encoding="UTF-8" standalone="no"?>
<!-- Created with Inkscape (http://www.inkscape.org/) -->

<svg
   width="510.73807"
   height="511.03082"
   viewBox="0 0 135.13279 135.21024"
   version="1.1"
   id="svg5"
   inkscape:version="1.1 (c68e22c387, 2021-05-23)"
   sodipodi:docname="horimetro.svg"
   xmlns:inkscape="http://www.inkscape.org/namespaces/inkscape"
   xmlns:sodipodi="http://sodipodi.sourceforge.net/DTD/sodipodi-0.dtd"
   xmlns="http://www.w3.org/2000/svg"
   xmlns:svg="http://www.w3.org/2000/svg">
  <sodipodi:namedview
     id="namedview7"
     pagecolor="#ffffff"
     bordercolor="#666666"
     borderopacity="1.0"
     inkscape:pageshadow="2"
     inkscape:pageopacity="0.0"
     inkscape:pagecheckerboard="0"
     inkscape:document-units="mm"
     showgrid="false"
     fit-margin-top="0"
     fit-margin-left="0"
     fit-margin-right="0"
     fit-margin-bottom="0"
     units="px"
     inkscape:zoom="0.90509668"
     inkscape:cx="219.86601"
     inkscape:cy="311.56893"
     inkscape:window-width="1920"
     inkscape:window-height="1009"
     inkscape:window-x="892"
     inkscape:window-y="349"
     inkscape:window-maximized="1"
     inkscape:current-layer="layer1" />
  <defs
     id="defs2" />
  <g
     inkscape:label="Camada 1"
     inkscape:groupmode="layer"
     id="layer1"
     transform="translate(-21.945813,-83.564439)">
    <path
       id="path2597"
       style="fill:#000000;stroke-width:3.77953"
       d="M 253.77148 13.833984 A 227.35327 227.35327 0 0 0 26.419922 241.1875 A 227.35327 227.35327 0 0 0 253.77148 468.54102 A 227.35327 227.35327 0 0 0 372.19727 434.95117 C 377.59237 422.12962 382.75015 409.84028 386.39648 401.10352 C 388.14285 396.91916 389.42642 393.83015 390.53711 391.14453 C 386.03286 389.16542 378.56322 385.99466 366.04297 380.7207 C 357.48638 377.11639 349.69873 373.80917 344.03125 371.375 C 341.19751 370.15792 338.89507 369.16157 337.26953 368.44531 C 336.45678 368.08716 335.82203 367.80175 335.32812 367.57422 C 335.08122 367.46045 334.88043 367.36502 334.63477 367.24219 C 334.51197 367.18058 334.3907 367.12182 334.125 366.96875 C 333.99207 366.89229 333.84198 366.81302 333.47461 366.54883 C 333.29092 366.41673 332.62697 365.84181 332.625 365.83984 C 332.62398 365.8389 331.7994 364.8797 331.79883 364.87891 C 331.79822 364.87811 330.60367 362.29747 330.60352 362.29688 C 330.60329 362.29601 331.74153 356.29588 331.95508 356.02148 C 332.16862 355.74694 332.24611 355.6638 332.31641 355.58594 C 332.45776 355.42984 332.51261 355.37524 332.57422 355.3125 C 332.69743 355.18664 332.79866 355.08579 332.92188 354.96484 C 333.16836 354.72314 333.48486 354.41438 333.90234 354.01367 C 334.73724 353.21226 335.94699 352.06735 337.48242 350.60938 C 340.55329 347.69332 344.93987 343.53861 350.23242 338.54102 C 360.81752 328.54579 375.01421 315.17079 389.47461 301.56445 C 418.3954 274.35178 447.99386 246.56026 452.58984 242.39258 L 454.82617 240.36133 A 7.3708152 7.3708152 0 0 1 459.33398 238.46484 A 7.3708152 7.3708152 0 0 1 460.99023 238.55273 A 7.3708152 7.3708152 0 0 1 466.57031 248.68164 L 465.51367 251.19141 C 448.12006 292.47152 436.62378 319.78745 429.49805 336.79102 C 426.1693 344.73418 423.97753 350.01161 422.4043 353.81445 C 423.32499 354.20696 423.89936 354.45096 424.98828 354.91406 C 430.19063 357.12651 437.47397 360.21304 445.2168 363.48438 A 227.35327 227.35327 0 0 0 481.125 241.1875 A 227.35327 227.35327 0 0 0 253.77148 13.833984 z M 244.13086 70.574219 L 257.29492 70.574219 L 270.45898 70.574219 L 270.45898 74.931641 C 270.46088 85.006875 270.95774 97.714801 271.35352 97.824219 C 271.5753 97.885447 274.59354 98.372833 278.06055 98.908203 C 289.98789 100.74997 301.07178 103.67745 311.61719 107.76758 C 317.04104 109.8713 317.78152 110.07311 318.14062 109.54688 C 318.36324 109.22032 321.59114 103.98468 325.3125 97.912109 L 332.07812 86.871094 L 333.25 87.570312 C 333.89449 87.955295 338.84359 90.824182 344.24805 93.945312 C 349.65251 97.066446 354.13625 99.666707 354.21094 99.724609 C 354.28577 99.782436 351.36436 105.12384 347.7207 111.59375 C 344.07701 118.06366 341.04896 123.46862 340.99219 123.60352 C 340.93549 123.73844 341.93832 124.58194 343.21875 125.47852 C 351.72318 131.43361 366.11298 145.78446 374.9082 157.08203 L 375.7168 158.12109 L 387.0918 151.61328 C 393.34846 148.03441 398.57785 145.10547 398.71289 145.10547 C 398.99787 145.10547 412.29102 166.92884 412.29102 167.39648 C 412.29102 167.56845 407.20066 170.6497 400.98047 174.24414 C 394.76024 177.83855 389.52616 180.91617 389.34766 181.08398 C 389.16586 181.25482 389.7651 183.15239 390.71289 185.40234 C 394.38013 194.10799 398.4348 208.63936 401 222.26758 L 402.1582 228.41992 L 411.30273 228.66211 C 416.33242 228.7959 422.24124 228.90587 424.43359 228.90625 L 428.41992 228.9082 L 428.41992 241.46484 L 428.41992 254.02148 L 415.16406 254.25977 C 407.87316 254.39054 396.20921 254.6023 389.24414 254.73047 L 376.58008 254.96289 L 376.36914 252.22461 C 376.25273 250.71877 375.97719 245.81683 375.75586 241.33008 C 374.64986 218.91015 371.60529 206.16696 363.35156 189.41602 C 347.59861 157.44548 318.09989 134.17909 283.25195 126.24023 C 277.46367 124.92156 273.10007 124.35623 265.17383 123.89648 C 256.04125 123.36678 244.37052 123.86228 237.27148 125.07812 C 192.84376 132.69588 156.04968 165.5341 143.51367 208.75391 C 140.8963 217.77772 139.49152 227.07017 138.84375 239.66016 C 138.62866 243.84096 138.35429 248.97208 138.23242 251.0625 L 138.00977 254.86328 L 111.9043 254.86328 L 85.798828 254.86328 L 85.798828 241.88477 L 85.798828 228.9082 L 95.716797 228.90625 C 101.17224 228.90531 107.23708 228.79761 109.19336 228.66797 L 112.75 228.43359 L 114.66797 218.75195 C 117.78825 203.0081 120.50857 193.14412 123.9707 185.01367 C 124.82828 182.99975 125.39286 181.22934 125.22461 181.07812 C 125.05638 180.92697 120.12114 178.0116 114.25781 174.60156 C 108.39449 171.19148 103.60615 168.29141 103.61719 168.15625 C 103.62815 168.02094 106.25599 162.71093 109.45703 156.35547 L 115.27734 144.80078 L 126.95508 151.23242 C 138.09126 157.36701 138.66588 157.63697 139.33984 157.04102 C 139.72855 156.69746 141.64363 154.49765 143.59766 152.15234 C 151.65513 142.48133 164.99681 129.79903 173.04688 124.1582 C 173.66041 123.72824 173.20392 122.79481 167.22852 112.24414 C 163.66247 105.94767 160.65558 100.5442 160.54688 100.23828 C 160.4011 99.82813 162.79426 98.271252 169.65625 94.306641 C 174.77454 91.3495 179.76295 88.463388 180.74219 87.894531 L 182.52148 86.861328 L 189.79883 98.539062 C 197.93596 111.60005 196.86554 110.55949 200.33203 108.79102 C 206.19632 105.79929 225.58755 100.52319 237.27148 98.740234 C 240.12667 98.30453 242.83801 97.876521 243.29688 97.789062 L 244.13086 97.628906 L 244.13086 84.101562 L 244.13086 70.574219 z M 244.08398 149.51758 L 270.46484 149.51758 L 270.55469 230.86523 L 275.56641 233.24023 C 282.49586 236.52117 289.21694 243.48609 293.16797 251.48047 C 296.34021 257.89909 296.4082 266.87555 296.4082 268.24219 C 296.4082 269.87052 296.34936 278.56937 293.11523 285.11328 C 289.25674 292.92039 281.00172 301.28754 274.53516 303.94727 L 270.47266 305.61914 L 270.46484 334.20117 L 244.08203 334.20117 L 243.99414 305.61914 L 238.98047 303.24414 C 232.05101 299.96325 225.33188 292.99833 221.38086 285.00391 C 218.20851 278.58532 218.14062 271.2818 218.14062 268.24219 C 218.14062 265.8581 218.20857 257.89909 221.38086 251.48047 C 225.3319 243.48609 232.05105 236.52117 238.98047 233.24023 L 243.99414 230.86523 L 244.08398 149.51758 z M 459.7793 245.82031 L 457.53711 247.85352 C 449.26418 255.35554 337.70773 360.32294 337.76367 360.55273 C 337.80207 360.71049 351.81521 366.73004 368.90234 373.92773 C 394.48763 384.7051 399.962 387.11604 399.93555 387.5957 C 399.91688 387.91609 389.61988 412.58504 377.05469 442.41602 C 364.48953 472.247 353.97802 497.20924 353.69531 497.88672 L 353.18164 499.11914 L 355.41406 497.09375 C 363.8734 489.41893 475.2321 384.6305 475.17578 384.39844 C 475.13685 384.23807 461.14103 378.20906 444.07227 371.00195 C 427.00354 363.79477 412.96262 357.82395 412.87305 357.73438 C 412.74012 357.60149 423.93422 330.89322 458.72266 248.33008 L 459.7793 245.82031 z M 217.70117 360.58398 L 296.84766 360.58398 L 296.84766 386.9668 L 217.70117 386.9668 L 217.70117 360.58398 z "
       transform="matrix(0.26458333,0,0,0.26458333,21.945813,83.564439)" />
    <path
       d="m 89.969251,149.10119 c -3.022936,-6e-5 -5.473527,2.45053 -5.473467,5.47346 -6e-5,3.02294 2.450531,5.47353 5.473467,5.47347 3.022937,6e-5 5.473528,-2.45053 5.473467,-5.47347 6.1e-5,-3.02293 -2.45053,-5.47352 -5.473467,-5.47346 z"
       id="path3613"
       style="stroke-width:0.264584" />
  </g>
</svg>
