<?xml version="1.0" encoding="UTF-8" standalone="no"?>
<svg
   xmlns:dc="http://purl.org/dc/elements/1.1/"
   xmlns:cc="http://creativecommons.org/ns#"
   xmlns:rdf="http://www.w3.org/1999/02/22-rdf-syntax-ns#"
   xmlns:svg="http://www.w3.org/2000/svg"
   xmlns="http://www.w3.org/2000/svg"
   xmlns:sodipodi="http://sodipodi.sourceforge.net/DTD/sodipodi-0.dtd"
   xmlns:inkscape="http://www.inkscape.org/namespaces/inkscape"
   width="53.8125"
   height="29.517578"
   viewBox="0 0 14.23789 7.8098592"
   version="1.1"
   id="svg8"
   inkscape:version="1.0.2 (e86c870879, 2021-01-15, custom)"
   sodipodi:docname="LVJEBB.svg">
  <defs
     id="defs2" />
  <sodipodi:namedview
     id="base"
     pagecolor="#ffffff"
     bordercolor="#666666"
     borderopacity="1.0"
     inkscape:pageopacity="0.0"
     inkscape:pageshadow="2"
     inkscape:zoom="7.9195959"
     inkscape:cx="13.443735"
     inkscape:cy="19.705703"
     inkscape:document-units="mm"
     inkscape:current-layer="layer1"
     showgrid="false"
     fit-margin-top="2"
     fit-margin-left="2"
     fit-margin-right="2"
     fit-margin-bottom="2"
     inkscape:window-width="1920"
     inkscape:window-height="1031"
     inkscape:window-x="-8"
     inkscape:window-y="18"
     inkscape:window-maximized="1"
     inkscape:document-rotation="0"
     units="px" />
  <metadata
     id="metadata5">
    <rdf:RDF>
      <cc:Work
         rdf:about="">
        <dc:format>image/svg+xml</dc:format>
        <dc:type
           rdf:resource="http://purl.org/dc/dcmitype/StillImage" />
        <dc:title></dc:title>
      </cc:Work>
    </rdf:RDF>
  </metadata>
  <g
     inkscape:label="Camada 1"
     inkscape:groupmode="layer"
     id="layer1"
     transform="translate(-34.807782,-55.932868)">
    <path
       id="path833"
       style="color:#000000;font-style:normal;font-variant:normal;font-weight:normal;font-stretch:normal;font-size:medium;line-height:normal;font-family:sans-serif;font-variant-ligatures:normal;font-variant-position:normal;font-variant-caps:normal;font-variant-numeric:normal;font-variant-alternates:normal;font-variant-east-asian:normal;font-feature-settings:normal;font-variation-settings:normal;text-indent:0;text-align:start;text-decoration:none;text-decoration-line:none;text-decoration-style:solid;text-decoration-color:#000000;letter-spacing:normal;word-spacing:normal;text-transform:none;writing-mode:lr-tb;direction:ltr;text-orientation:mixed;dominant-baseline:auto;baseline-shift:baseline;text-anchor:start;white-space:normal;shape-padding:0;shape-margin:0;inline-size:0;clip-rule:nonzero;display:inline;overflow:visible;visibility:visible;opacity:1;isolation:auto;mix-blend-mode:normal;color-interpolation:sRGB;color-interpolation-filters:linearRGB;solid-color:#000000;solid-opacity:1;vector-effect:none;fill:#000000;fill-opacity:1;fill-rule:nonzero;stroke:none;stroke-width:1.71432;stroke-linecap:butt;stroke-linejoin:miter;stroke-miterlimit:4;stroke-dasharray:none;stroke-dashoffset:0;stroke-opacity:1;paint-order:stroke fill markers;color-rendering:auto;image-rendering:auto;shape-rendering:auto;text-rendering:auto;enable-background:accumulate;stop-color:#000000;stop-opacity:1"
       d="m 48.516506,56.462035 c -1.204677,0 -2.321515,0.643955 -2.923853,1.687235 -0.212101,0.36737 -0.3481,0.765265 -0.410827,1.172022 h -0.994772 c -0.233892,-1.003576 -1.131783,-1.752348 -2.206583,-1.752348 -1.074834,0 -1.973242,0.748726 -2.207101,1.752348 H 38.671112 C 38.60839,58.914581 38.472841,58.516535 38.260801,58.14927 37.658462,57.10599 36.541625,56.462035 35.336949,56.462035 v 0.925008 c 0.87534,0 1.684164,0.467181 2.121834,1.225248 0.437671,0.758067 0.437671,1.691913 0,2.44998 -0.43767,0.758067 -1.246494,1.224731 -2.121834,1.224731 v 0.926559 c 1.204676,0 2.321513,-0.646022 2.923852,-1.689303 0.223631,-0.387341 0.363617,-0.808407 0.421163,-1.238167 h 1.075387 c 0.208353,1.037537 1.124236,1.81901 2.22312,1.81901 1.098883,0 2.014767,-0.781473 2.22312,-1.81901 h 0.967383 c 0.05758,0.429824 0.198052,0.850834 0.421679,1.238167 0.602338,1.043281 1.719176,1.689303 2.923853,1.689303 v -0.926559 c -0.87534,0 -1.684165,-0.466664 -2.121835,-1.224731 -0.43767,-0.758067 -0.43767,-1.691913 0,-2.44998 0.43767,-0.758067 1.246495,-1.225248 2.121835,-1.225248 z" />
  </g>
</svg>
