<?xml version="1.0" encoding="UTF-8" standalone="no"?>
<!-- Created with Inkscape (http://www.inkscape.org/) -->

<svg
   width="510.73807"
   height="511.03082"
   viewBox="0 0 135.13279 135.21024"
   version="1.1"
   id="svg5"
   inkscape:version="1.1 (c68e22c387, 2021-05-23)"
   sodipodi:docname="macro.svg"
   xmlns:inkscape="http://www.inkscape.org/namespaces/inkscape"
   xmlns:sodipodi="http://sodipodi.sourceforge.net/DTD/sodipodi-0.dtd"
   xmlns="http://www.w3.org/2000/svg"
   xmlns:svg="http://www.w3.org/2000/svg">
  <sodipodi:namedview
     id="namedview7"
     pagecolor="#ffffff"
     bordercolor="#666666"
     borderopacity="1.0"
     inkscape:pageshadow="2"
     inkscape:pageopacity="0.0"
     inkscape:pagecheckerboard="0"
     inkscape:document-units="mm"
     showgrid="false"
     fit-margin-top="0"
     fit-margin-left="0"
     fit-margin-right="0"
     fit-margin-bottom="0"
     units="px"
     inkscape:zoom="0.90509668"
     inkscape:cx="138.65922"
     inkscape:cy="319.85533"
     inkscape:window-width="1920"
     inkscape:window-height="976"
     inkscape:window-x="-8"
     inkscape:window-y="16"
     inkscape:window-maximized="1"
     inkscape:current-layer="layer1" />
  <defs
     id="defs2" />
  <g
     inkscape:label="Camada 1"
     inkscape:groupmode="layer"
     id="layer1"
     transform="translate(-21.945813,-83.564439)">
    <path
       id="path946"
       fill="param(fill)" fill-opacity="param(fill-opacity)" stroke="param(outline)" stroke-opacity="param(outline-opacity)" stroke-width="param(outline-width)"
       d="M 255.1543 18.792969 C 209.74677 18.779274 164.57946 31.870376 125.95508 57.664062 C 110.90455 67.714922 103.5164 73.664491 90.927734 85.867188 C 52.020427 123.58147 27.445645 172.28721 20.326172 225.79492 C 18.476936 239.69319 18.24825 267.38716 19.867188 281.38086 C 24.903 324.9093 42.588723 367.44255 70.332031 402.74609 C 78.276432 412.85539 101.45596 435.5262 111.65234 443.1582 C 150.54239 472.26748 192.03876 488.1171 238.57617 491.63867 C 263.98571 493.56147 291.73469 490.42278 317.32422 482.73242 C 328.43932 479.392 346.22149 472.61498 353.5625 468.91992 L 357.83789 466.76758 L 355.54688 459.07617 C 352.75006 449.68949 351.66201 431.06611 353.38086 421.98047 C 354.81353 414.40785 357.76887 405.29021 360.66406 399.50391 C 361.93882 396.9562 379.18178 366.82888 398.98242 332.55469 C 418.78306 298.2805 434.98242 270.03467 434.98242 269.78711 L 380.60742 269.33789 L 379.98828 255.63477 C 379.6482 248.09786 378.7289 238.24848 377.94336 233.74805 C 368.98766 182.43975 328.08512 141.63743 276.56055 132.61328 C 265.18751 130.62147 245.46896 130.59563 234.28125 132.55664 C 188.15702 140.64139 150.38305 173.67473 136.30664 218.23438 C 132.84337 229.19769 131.24332 239.48652 130.52344 255.43945 L 129.89648 269.33789 L 74.59375 269.33789 L 74.59375 241.54492 L 102.85742 241.39258 C 106.37448 221.45258 109.75987 206.5343 114.76172 195.07031 L 116.24219 191.67578 L 92.949219 178.10547 L 105.53516 152.86523 L 130.27539 166.49414 C 130.58241 166.49852 132.8517 163.93262 135.31836 160.79297 C 141.03956 153.51076 154.3388 140.38285 161.41602 135.0293 L 166.89258 130.88672 L 152.66797 105.74023 C 152.82736 105.5951 173.44837 93.613602 176.58789 91.841797 L 191.93359 116.47266 C 192.17614 116.47266 193.26361 115.99723 194.34961 115.41602 C 201.15818 111.77217 223.90364 105.65685 236.95508 103.96094 L 241.35547 103.39062 L 241.35547 74.783203 L 269.14844 74.783203 L 269.84375 103.50781 C 270.22591 103.50985 274.49914 104.1471 279.33984 104.92383 C 290.44495 106.70572 303.16596 110.13119 311.92188 113.69922 C 315.65718 115.22135 318.78082 116.46885 318.86133 116.4707 L 333.94141 91.857422 C 336.63337 93.369346 357.67329 105.5939 357.83203 105.73828 L 343.62305 130.99609 L 346.28516 132.88867 C 355.97462 139.77233 367.94587 151.64023 378.28125 164.60938 L 380.0957 166.88672 L 404.46289 152.98438 L 419.19141 177.23633 L 394.25586 191.66406 L 395.72656 195.06445 C 400.77344 206.73276 404.5964 221.58543 408.07617 241.31445 L 435.91016 241.54492 L 435.91016 268.51367 L 455.5957 302.68164 C 466.4236 321.4747 475.55406 336.56483 475.88477 336.21484 C 476.92179 335.11742 483.05342 315.70323 485.43555 305.97461 C 495.57379 264.56902 493.90625 224.40291 480.3125 182.61914 C 460.59637 122.01657 416.37846 71.231666 358.57422 42.798828 C 325.93272 26.743068 290.47126 18.80362 255.1543 18.792969 z M 241.35547 158.16406 L 269.14844 158.16406 L 269.24219 243.85938 L 274.52148 246.36133 C 281.82136 249.81763 288.90221 257.15444 293.06445 265.57617 C 296.40626 272.3379 296.47852 281.79468 296.47852 283.23438 C 296.47852 284.94975 296.41464 294.11407 293.00781 301.00781 C 288.94306 309.23225 280.24779 318.04574 273.43555 320.84766 L 269.15625 322.60938 L 269.14844 352.71875 L 241.35547 352.71875 L 241.26172 322.60938 L 235.98047 320.10742 C 228.68059 316.65112 221.60167 309.31435 217.43945 300.89258 C 214.09752 294.13089 214.02539 286.43647 214.02539 283.23438 C 214.02539 280.72284 214.09762 272.3379 217.43945 265.57617 C 221.6017 257.15444 228.68063 249.81763 235.98047 246.36133 L 241.26172 243.85938 L 241.35547 158.16406 z M 255.06445 261.5918 A 21.792533 21.792533 0 0 0 233.27148 283.38477 A 21.792533 21.792533 0 0 0 255.06445 305.17773 A 21.792533 21.792533 0 0 0 276.85742 283.38477 A 21.792533 21.792533 0 0 0 255.06445 261.5918 z M 435.92773 326.77734 C 434.89691 326.77734 386.82519 410.50493 384.42969 416.47266 C 371.53148 448.60507 393.59261 486.27238 428.47266 491.66992 C 455.72838 495.88761 483.92597 476.1361 490.61328 448.14258 C 493.16227 437.47237 491.49723 422.09353 486.77539 412.70703 C 482.99768 405.1973 436.59376 326.77734 435.92773 326.77734 z M 213.5625 380.51172 L 296.94141 380.51172 L 296.94141 408.30469 L 213.5625 408.30469 L 213.5625 380.51172 z "
       transform="matrix(0.26458333,0,0,0.26458333,21.945813,83.564439)" />
  </g>
</svg>
