<?xml version="1.0" encoding="UTF-8" standalone="no"?>
<!-- Created with Inkscape (http://www.inkscape.org/) -->

<svg
   width="101.24928mm"
   height="29.891191mm"
   viewBox="0 0 101.24928 29.891192"
   version="1.1"
   id="svg5"
   inkscape:version="1.1 (c68e22c387, 2021-05-23)"
   sodipodi:docname="recurso_hidrico.svg"
   xmlns:inkscape="http://www.inkscape.org/namespaces/inkscape"
   xmlns:sodipodi="http://sodipodi.sourceforge.net/DTD/sodipodi-0.dtd"
   xmlns="http://www.w3.org/2000/svg"
   xmlns:svg="http://www.w3.org/2000/svg">
  <sodipodi:namedview
     id="namedview7"
     pagecolor="#ffffff"
     bordercolor="#666666"
     borderopacity="1.0"
     inkscape:pageshadow="2"
     inkscape:pageopacity="0.0"
     inkscape:pagecheckerboard="0"
     inkscape:document-units="mm"
     showgrid="false"
     fit-margin-top="5"
     fit-margin-left="5"
     fit-margin-right="5"
     fit-margin-bottom="0"
     inkscape:zoom="1.2044332"
     inkscape:cx="185.14933"
     inkscape:cy="77.214742"
     inkscape:window-width="1920"
     inkscape:window-height="983"
     inkscape:window-x="-8"
     inkscape:window-y="18"
     inkscape:window-maximized="1"
     inkscape:current-layer="layer1" />
  <defs
     id="defs2" />
  <g
     inkscape:label="Camada 1"
     inkscape:groupmode="layer"
     id="layer1"
     transform="translate(-35.705454,-135.01207)">
    <path
       id="path39"
       style="fill:#0000ff;stroke-width:0.134924"
       d="m 50.102834,138.03557 c -2.894198,0.0225 -5.954543,0.71222 -9.189619,2.35851 a 0.78250001,0.78250001 0 0 0 -0.342099,1.05265 0.78250001,0.78250001 0 0 0 1.053166,0.34158 c 4.632341,-2.35734 8.700979,-2.59628 12.556339,-1.75183 3.85536,0.84445 7.494228,2.81034 11.076326,4.92373 2.410937,1.42242 4.793729,2.9101 7.217648,4.14239 -4.712885,3.51099 -8.021394,4.20575 -11.161074,5.19192 -3.309088,1.0394 -6.404375,2.45544 -10.150287,7.68326 a 0.59850001,0.59850001 0 0 0 0.136427,0.83612 0.59850001,0.59850001 0 0 0 0.836125,-0.13849 c 3.628721,-5.06427 6.308998,-6.2265 9.536885,-7.24039 3.164652,-0.99402 6.881424,-1.79901 12.00857,-5.74435 0.781582,0.36483 1.567942,0.69997 2.362644,0.99064 2.902289,1.06156 5.937094,1.53557 9.104871,0.88367 0.705432,3.01313 3.583419,6.6213 17.044954,8.14472 0.36197,-0.23249 0.75292,-0.42433 0.86868,-0.42633 0.11579,-0.002 0.64224,0.23727 1.17047,0.53227 0.81252,0.45375 1.16151,0.5599 2.26395,0.69039 0.7167,0.0849 1.52097,0.22093 1.78749,0.30283 0.41806,0.12831 0.55787,0.1101 1.01699,-0.1354 0.29667,-0.15863 0.97464,-0.33717 1.5322,-0.40307 0.64823,-0.0765 1.27723,-0.25553 1.78749,-0.50902 l 0.78703,-0.39118 0.69247,0.25786 c 0.60557,0.22527 0.76454,0.23546 1.27227,0.0827 0.31921,-0.0961 0.79553,-0.35224 1.05834,-0.56947 0.2628,-0.21731 0.54536,-0.39639 0.62786,-0.39739 0.0825,-0.001 0.45154,0.14328 0.82011,0.32142 0.42944,0.20761 0.89608,0.32013 1.29863,0.31213 0.34549,-0.007 1.26262,0.0638 2.03812,0.1571 0.77549,0.0932 2.07831,0.19847 2.89543,0.23357 0.81712,0.0352 1.74009,0.13413 2.05103,0.21963 0.31094,0.0865 0.72075,0.12216 0.91054,0.0822 0.23679,-0.05 0.5501,0.0532 0.99736,0.32815 1.26184,0.77579 1.87953,0.95526 3.55068,1.03146 l 0.11421,-18.42368 c -2.9829,-0.24148 -3.75083,-0.11623 -5.63893,0.92087 l -1.4025,0.7705 -1.32137,0.0253 c -1.66481,0.0321 -3.14478,0.4169 -4.85706,1.26245 -1.83493,0.90587 -3.65476,1.31528 -3.99614,0.89866 -0.0748,-0.0913 -0.1787,-0.33098 -0.231,-0.53278 -0.10401,-0.40122 -0.57803,-0.69445 -1.3193,-0.81598 -0.87741,-0.14394 -2.75061,0.23537 -5.83426,1.18081 -3.38405,1.03751 -3.95132,1.11423 -5.13819,0.69608 -0.64603,-0.22777 -0.90643,-0.25184 -1.59319,-0.14728 -4.742804,-0.21729 -6.99013,-0.38165 -13.212111,2.06293 a 0.78250001,0.78250001 0 0 0 -0.03359,0.004 c -3.720955,1.49545 -7.121599,1.1426 -10.5761,-0.12093 -3.454498,-1.26353 -6.915811,-3.4655 -10.529588,-5.59759 -3.613777,-2.13208 -7.387315,-4.1971 -11.535214,-5.10563 -1.036974,-0.22713 -2.098744,-0.37955 -3.183268,-0.44132 -0.406697,-0.0231 -0.81696,-0.0337 -1.230416,-0.0305 z" />
  </g>
</svg>
