<?xml version="1.0" encoding="UTF-8" standalone="no"?>
<!-- Created with Inkscape (http://www.inkscape.org/) -->

<svg
   width="128"
   height="128"
   viewBox="0 0 33.866666 33.866667"
   version="1.1"
   id="svg5"
   inkscape:version="1.1 (c68e22c387, 2021-05-23)"
   sodipodi:docname="simb_cota_nivel.svg"
   xmlns:inkscape="http://www.inkscape.org/namespaces/inkscape"
   xmlns:sodipodi="http://sodipodi.sourceforge.net/DTD/sodipodi-0.dtd"
   xmlns="http://www.w3.org/2000/svg"
   xmlns:svg="http://www.w3.org/2000/svg">
  <sodipodi:namedview
     id="namedview7"
     pagecolor="#ffffff"
     bordercolor="#666666"
     borderopacity="1.0"
     inkscape:pageshadow="2"
     inkscape:pageopacity="0.0"
     inkscape:pagecheckerboard="0"
     inkscape:document-units="mm"
     showgrid="false"
     units="px"
     inkscape:zoom="2.8329125"
     inkscape:cx="39.182291"
     inkscape:cy="78.364582"
     inkscape:window-width="1920"
     inkscape:window-height="980"
     inkscape:window-x="-8"
     inkscape:window-y="21"
     inkscape:window-maximized="1"
     inkscape:current-layer="layer1" />
  <defs
     id="defs2" />
  <g
     inkscape:label="Camada 1"
     inkscape:groupmode="layer"
     id="layer1">
    <g
       id="path868"
       transform="matrix(0.90372271,0,0,0.90372271,1.627594,1.618568)"
       style="fill:#ffffff;fill-opacity:1">
      <path
         style="color:#000000;fill:#ffffff;stroke-width:0.528096;stroke-linecap:round;stroke-linejoin:round;-inkscape-stroke:none;paint-order:stroke fill markers;fill-opacity:1"
         d="M 30.221706,16.811321 A 13.31699,13.31699 0 0 1 16.904716,30.128311 13.31699,13.31699 0 0 1 3.5877266,16.811321 13.31699,13.31699 0 0 1 16.904716,3.4943314 13.31699,13.31699 0 0 1 30.221706,16.811321 Z"
         id="path1928" />
      <path
         style="color:#000000;fill:#000000;stroke-linecap:round;stroke-linejoin:round;-inkscape-stroke:none;paint-order:stroke fill markers;fill-opacity:1"
         d="m 16.904297,3.2304688 c -7.4974652,0 -13.5800782,6.082613 -13.5800782,13.5800782 0,7.497465 6.082613,13.582031 13.5800782,13.582031 7.497465,0 13.582031,-6.084566 13.582031,-13.582031 0,-7.4974652 -6.084566,-13.5800782 -13.582031,-13.5800782 z m 0,0.5273437 c 7.212061,0 13.052734,5.8406733 13.052734,13.0527345 0,7.212061 -5.840673,13.054687 -13.052734,13.054687 -7.2120612,0 -13.0527345,-5.842626 -13.0527345,-13.054687 0,-7.2120612 5.8406733,-13.0527345 13.0527345,-13.0527345 z"
         id="path1926" />
    </g>
    <g
       id="path1440"
       transform="matrix(0.23910996,0,0,0.23910996,1.627594,1.618568)"
       style="stroke:none;fill:#000000">
      <path
         style="color:#000000;fill:#000000;stroke:none;stroke-width:0.396915;stroke-linecap:round;stroke-linejoin:round;-inkscape-stroke:none;paint-order:stroke fill markers"
         d="m 14.094304,61.390348 c 0.493264,-7.792159 2.106825,-13.849919 5.454303,-20.47697 2.349511,-4.651359 5.319088,-8.725958 9.155447,-12.562317 3.794928,-3.79493 7.885431,-6.786815 12.435289,-9.09545 6.736625,-3.418219 12.51798,-4.959966 20.691513,-5.517925 l 1.531497,-0.104547 V 38.321249 63.00936 H 38.677085 13.991817 Z"
         id="path1900" />
      <path
         style="color:#000000;fill:#000000;stroke-linecap:round;stroke-linejoin:round;-inkscape-stroke:none;paint-order:stroke fill markers;stroke:none"
         d="M 63.349609,13.019531 61.804687,13.125 c -8.260698,0.563909 -14.128716,2.129124 -20.941406,5.585937 -4.607084,2.337673 -8.751375,5.366609 -12.591797,9.207032 -3.88213,3.88213 -6.890918,8.01173 -9.269531,12.720703 -3.386021,6.703355 -5.022756,12.846142 -5.521484,20.724609 l -0.103516,1.632813 a 0.20014252,0.20014252 0 0 0 0.201172,0.21289 H 38.470703 63.363281 A 0.20014252,0.20014252 0 0 0 63.5625,63.009766 V 38.113281 13.21875 a 0.20014252,0.20014252 0 0 0 -0.212891,-0.199219 z m -0.1875,0.414063 V 38.113281 62.808594 H 38.470703 13.791016 l 0.08984,-1.419922 c 0.496078,-7.836597 2.113414,-13.908371 5.478516,-20.570313 2.359832,-4.671791 5.340355,-8.76223 9.195312,-12.617187 3.813111,-3.813112 7.919308,-6.816431 12.488282,-9.134766 6.773595,-3.436977 12.565551,-4.981598 20.789062,-5.542968 z"
         id="path1898" />
    </g>
    <g
       id="path1479"
       transform="matrix(0.23582066,0,0,0.23582066,1.8388353,1.8286529)"
       style="stroke:none;fill:#000000">
      <path
         style="color:#000000;fill:#000000;stroke:none;stroke-linecap:round;stroke-linejoin:round;-inkscape-stroke:none;paint-order:stroke fill markers"
         d="m 64.421875,63.869141 a 0.20014252,0.20014252 0 0 0 -0.201172,0.199218 v 24.892578 24.892583 a 0.20014252,0.20014252 0 0 0 0.212891,0.19921 l 1.632812,-0.10351 c 4.187554,-0.26509 8.33507,-0.94949 11.796875,-1.94727 6.085632,-1.75401 12.557628,-5.11745 17.570313,-9.13086 2.302829,-1.84376 5.834046,-5.356363 7.652346,-7.613278 4.25737,-5.284343 7.59755,-11.79184 9.44531,-18.398437 0.68295,-2.441855 1.42673,-6.603565 1.58789,-8.894531 0.058,-0.824334 0.14907,-2.035495 0.20117,-2.689453 l 0.0937,-1.191407 a 0.20014252,0.20014252 0 0 0 -0.19922,-0.214843 H 89.318359 Z m 0.199219,0.398437 h 24.697265 24.679691 l -0.0781,0.976563 c -0.0523,0.656528 -0.14111,1.86745 -0.19922,2.693359 -0.15745,2.238229 -0.90288,6.414115 -1.57422,8.814453 -1.8324,6.55169 -5.15029,13.01495 -9.37109,18.253906 -1.78646,2.217407 -5.327156,5.739541 -7.591796,7.552731 -4.966553,3.97647 -11.404409,7.32337 -17.431641,9.06055 -3.426782,0.98768 -7.550101,1.66825 -11.710937,1.93164 l -1.419922,0.0898 V 88.960937 Z"
         id="path1906" />
      <path
         style="color:#000000;fill:#000000;stroke:none;stroke-width:0.400245;stroke-linecap:round;stroke-linejoin:round;-inkscape-stroke:none;paint-order:stroke fill markers"
         d="M 64.421334,88.960732 V 64.068341 h 24.896737 24.896739 l -0.0948,1.191353 c -0.0522,0.655244 -0.14232,1.866454 -0.20037,2.691576 -0.15931,2.2646 -0.90348,6.433342 -1.58062,8.854441 -1.84008,6.57915 -5.16967,13.064412 -9.40876,18.326067 -1.80238,2.237163 -5.338228,5.755282 -7.621965,7.583762 -4.989624,3.99494 -11.444386,7.34944 -17.500824,9.09504 -3.444297,0.99273 -7.579322,1.67496 -11.753521,1.9392 l -1.632596,0.10334 z"
         id="path1908" />
    </g>
    <path
       id="path983"
       style="color:#000000;fill:#000000;stroke-width:3.77953;-inkscape-stroke:none"
       d="M 62.443359 0.53125 L 62.443359 62.089844 L 0.88671875 62.089844 L 0.88671875 64.990234 L 62.443359 64.990234 L 62.443359 126.54688 L 65.34375 126.54688 L 65.34375 64.990234 L 126.90234 64.990234 L 126.90234 62.089844 L 65.34375 62.089844 L 65.34375 0.53125 L 62.443359 0.53125 z "
       transform="scale(0.26458333)" />
  </g>
</svg>
