<?xml version="1.0" encoding="UTF-8" standalone="no"?>
<svg
   width="74.076805mm"
   height="74.076805mm"
   viewBox="0 0 74.076804 74.076807"
   version="1.1"
   id="svg8"
   inkscape:version="1.1 (c68e22c387, 2021-05-23)"
   sodipodi:docname="V-VCN.svg"
   xmlns:inkscape="http://www.inkscape.org/namespaces/inkscape"
   xmlns:sodipodi="http://sodipodi.sourceforge.net/DTD/sodipodi-0.dtd"
   xmlns="http://www.w3.org/2000/svg"
   xmlns:svg="http://www.w3.org/2000/svg"
   xmlns:rdf="http://www.w3.org/1999/02/22-rdf-syntax-ns#"
   xmlns:cc="http://creativecommons.org/ns#"
   xmlns:dc="http://purl.org/dc/elements/1.1/">
  <defs
     id="defs2">
    <marker
       style="overflow:visible"
       id="Arrow2Lend"
       refX="0"
       refY="0"
       orient="auto"
       inkscape:stockid="Arrow2Lend"
       inkscape:isstock="true">
      <path
         transform="matrix(-1.1,0,0,-1.1,-1.1,0)"
         d="M 8.7185878,4.0337352 -2.2072895,0.01601326 8.7185884,-4.0017078 c -1.7454984,2.3720609 -1.7354408,5.6174519 -6e-7,8.035443 z"
         style="fill:#000000;fill-opacity:1;fill-rule:evenodd;stroke:#000000;stroke-width:0.625;stroke-linejoin:round;stroke-opacity:1"
         id="path861" />
    </marker>
    <marker
       style="overflow:visible"
       id="Arrow1Lend"
       refX="0"
       refY="0"
       orient="auto"
       inkscape:stockid="Arrow1Lend"
       inkscape:isstock="true">
      <path
         transform="matrix(-0.8,0,0,-0.8,-10,0)"
         style="fill:#000000;fill-opacity:1;fill-rule:evenodd;stroke:#000000;stroke-width:1pt;stroke-opacity:1"
         d="M 0,0 5,-5 -12.5,0 5,5 Z"
         id="path843" />
    </marker>
    <marker
       style="overflow:visible"
       id="TriangleOutL"
       refX="0"
       refY="0"
       orient="auto"
       inkscape:stockid="TriangleOutL"
       inkscape:isstock="true">
      <path
         transform="scale(0.8)"
         style="fill:#000000;fill-opacity:1;fill-rule:evenodd;stroke:#000000;stroke-width:1pt;stroke-opacity:1"
         d="M 5.77,0 -2.88,5 V -5 Z"
         id="path982" />
    </marker>
  </defs>
  <sodipodi:namedview
     id="base"
     pagecolor="#ffffff"
     bordercolor="#666666"
     borderopacity="1.0"
     inkscape:pageopacity="0.0"
     inkscape:pageshadow="2"
     inkscape:zoom="1.4142136"
     inkscape:cx="136.47161"
     inkscape:cy="231.57747"
     inkscape:document-units="mm"
     inkscape:current-layer="g993"
     showgrid="false"
     fit-margin-top="0"
     fit-margin-left="0"
     fit-margin-right="0"
     fit-margin-bottom="0"
     inkscape:window-width="1920"
     inkscape:window-height="1017"
     inkscape:window-x="-8"
     inkscape:window-y="-8"
     inkscape:window-maximized="1"
     inkscape:document-rotation="0"
     inkscape:pagecheckerboard="0" />
  <metadata
     id="metadata5">
    <rdf:RDF>
      <cc:Work
         rdf:about="">
        <dc:format>image/svg+xml</dc:format>
        <dc:type
           rdf:resource="http://purl.org/dc/dcmitype/StillImage" />
      </cc:Work>
    </rdf:RDF>
  </metadata>
  <g
     inkscape:label="Camada 1"
     inkscape:groupmode="layer"
     id="layer1"
     transform="translate(-10.844092,-24.211352)">
    <g
       id="g993"
       transform="rotate(-90,48.158362,62.216084)">
      <path
         id="path885"
         style="stroke-width:1.02927;paint-order:stroke fill markers;stop-color:#000000"
         d="M 50.033642,43.011783 A 18.928433,18.928433 0 0 1 68.962075,61.940216 18.928433,18.928433 0 0 1 50.033642,80.868649 18.928433,18.928433 0 0 1 31.105209,61.940216 18.928433,18.928433 0 0 1 50.033642,43.011783 Z" />
      <path
         id="path891"
         style="fill:#ffffff;stroke:none;stroke-width:0.0400807;paint-order:stroke fill markers;stop-color:#000000"
         d="m 49.183769,46.640354 -0.811237,0.0626 c -5.638517,0.428352 -10.757211,4.698517 -13.025469,8.676473 -1.678736,3.228407 -1.874727,7.277574 -1.083828,10.581971 1.633498,6.425077 7.01496,10.425943 13.648248,11.185834 0.433437,0.04966 0.896667,0.09019 1.029698,0.09065 l 0.242588,0.002 v -7.621995 -7.621991 -7.676772 z m -2.656087,2.220472 V 75.327167 H 45.732746 V 48.860826 Z M 43.13404,50.74024 V 72.974966 H 42.339104 V 50.74024 Z m -2.980844,3.636227 V 70.046942 H 39.35826 V 54.376467 Z" />
      <path
         id="path892"
         style="fill:#ffffff;stroke:none;stroke-width:0.049331"
         inkscape:transform-center-y="1.2622385"
         d="m 56.840978,47.703312 -7.573738,7.15377 6.673809,6.303402 v 12.173149 h 0.88232 z"
         sodipodi:nodetypes="cccccc" />
      <g
         id="path1007"
         transform="matrix(1.2619316,0,0,1.2619316,-13.105393,-16.224102)">
        <path
           style="color:#000000;fill:#ff2a2a;stroke-width:0.699175;-inkscape-stroke:none"
           d="m 55.063702,51.538691 c 0,19.429586 0,19.429586 0,19.429586"
           id="path1496" />
      </g>
    </g>
  </g>
</svg>
