<?xml version="1.0" encoding="UTF-8" standalone="no"?>
<!-- Created with Inkscape (http://www.inkscape.org/) -->

<svg
   xmlns:dc="http://purl.org/dc/elements/1.1/"
   xmlns:cc="http://creativecommons.org/ns#"
   xmlns:rdf="http://www.w3.org/1999/02/22-rdf-syntax-ns#"
   xmlns:svg="http://www.w3.org/2000/svg"
   xmlns="http://www.w3.org/2000/svg"
   xmlns:sodipodi="http://sodipodi.sourceforge.net/DTD/sodipodi-0.dtd"
   xmlns:inkscape="http://www.inkscape.org/namespaces/inkscape"
   width="173.39732mm"
   height="173.39732mm"
   viewBox="0 0 173.39732 173.39732"
   version="1.1"
   id="svg8"
   inkscape:version="0.92.3 (2405546, 2018-03-11)"
   sodipodi:docname="valvula_com_volante.svg">
  <defs
     id="defs2" />
  <sodipodi:namedview
     id="base"
     pagecolor="#ffffff"
     bordercolor="#666666"
     borderopacity="1.0"
     inkscape:pageopacity="0.0"
     inkscape:pageshadow="2"
     inkscape:zoom="0.35"
     inkscape:cx="-135.8619"
     inkscape:cy="78.52401"
     inkscape:document-units="mm"
     inkscape:current-layer="layer1"
     showgrid="false"
     fit-margin-top="0"
     fit-margin-left="0"
     fit-margin-right="0"
     fit-margin-bottom="0"
     inkscape:window-width="1440"
     inkscape:window-height="837"
     inkscape:window-x="-8"
     inkscape:window-y="-8"
     inkscape:window-maximized="1" />
  <metadata
     id="metadata5">
    <rdf:RDF>
      <cc:Work
         rdf:about="">
        <dc:format>image/svg+xml</dc:format>
        <dc:type
           rdf:resource="http://purl.org/dc/dcmitype/StillImage" />
        <dc:title></dc:title>
      </cc:Work>
    </rdf:RDF>
  </metadata>
  <g
     inkscape:label="Camada 1"
     inkscape:groupmode="layer"
     id="layer1"
     transform="translate(-4.1729774,-3.9692607)">
    <path
       style="stroke-width:0.37797621"
       d="m 66.931662,176.86678 c -3.88992,-0.92442 -7.68753,-3.87709 -12.34735,-9.60017 l -2.46203,-3.02382 -12.74479,-0.0995 -12.7448,-0.0995 v 3.21783 3.21782 H 16.616332 6.5999617 V 125.12226 79.76511 h 10.5833303 10.58333 v 3.401785 3.401787 h 14.72339 14.72338 l 0.74817,-1.691365 c 0.78195,-1.767715 2.21467,-3.759496 4.76165,-6.619652 1.23493,-1.386782 1.39062,-1.719554 0.85294,-1.823101 -0.59583,-0.11475 -0.65774,-0.764437 -0.65774,-6.902524 v -6.775857 h 0.9568 c 0.52624,0 1.02506,-0.212614 1.10849,-0.472472 0.0834,-0.259858 0.77987,-2.768674 1.54766,-5.575149 1.69584,-6.198722 4.4027,-12.351679 7.17333,-16.305665 l 2.06491,-2.946842 V 31.01832 24.580586 h 3.40178 3.40179 v -3.401785 -3.401786 h -17.70899 -17.70898 l -1.27532,-0.859441 c -2.61075,-1.759379 -4.16229,-5.345941 -3.40544,-7.8720609 0.5251,-1.752644 2.92549,-3.953342 4.88864,-4.481966 1.02942,-0.277193 15.30105,-0.372013 45.7289,-0.303819 l 44.232458,0.09913 1.06473,0.794995 c 2.74959,2.053007 3.77991,6.9316209 2.05375,9.7245979 -1.70769,2.763106 -1.1545,2.687492 -21.20606,2.898561 L 101.28299,17.966 v 4.346726 4.346726 l 3.87426,0.107717 3.87426,0.107717 v 5.831552 5.831548 l 2.20746,2.943175 c 3.6359,4.847677 5.88208,10.814436 7.00275,18.602145 l 0.46622,3.239836 2.15434,0.113355 2.15434,0.113358 v 7.311237 c 0,6.270934 -0.0838,7.343381 -0.58884,7.537193 -0.49404,0.189582 -0.42015,0.454713 0.45897,1.646838 0.57629,0.781481 1.66266,2.10842 2.41413,2.94875 0.75147,0.840332 1.82559,2.498703 2.38692,3.68527 l 1.02061,2.157391 h 14.73 14.73 v -4.535712 -4.535715 h 8.50446 8.50447 v 44.790183 44.79018 H 165.16097 155.1446 v -3.21279 -3.2128 l -12.7567,0.019 -12.75669,0.019 -1.09931,2.34337 c -1.55276,3.30999 -5.83267,7.44652 -10.24615,9.9029 l -3.39562,1.88988 -23.245528,0.0608 c -13.12496,0.0343 -23.88441,-0.0911 -24.71294,-0.28796 z m -22.53409,-71.02131 v -4.53572 h -7.74851 -7.74851 v 4.53572 4.53571 h 7.74851 7.74851 z m 109.613098,0 v -4.53572 h -7.9375 -7.9375 v 4.53572 4.53571 h 7.9375 7.9375 z m -131.242128,-5.57515 -0.1046,-5.575151 -7.27604,-0.102653 -7.2760403,-0.102659 v 5.677803 5.67781 h 7.3806403 7.38064 z m 151.652838,-0.10266 v -5.677803 l -7.27604,0.102659 -7.27604,0.102653 -0.10459,5.575151 -0.10461,5.57515 h 7.38065 7.38063 z M 85.596982,51.98386 V 40.455586 h -1.86088 c -1.43915,0 -2.11832,0.216622 -2.99684,0.955842 -2.09343,1.761508 -5.03221,6.708722 -7.17909,12.085462 -0.99548,2.493116 -2.32629,7.614608 -2.32629,8.952503 v 1.062741 h 7.18155 7.18155 z m 27.214288,11.363997 c 0,-0.98008 -1.42539,-6.421263 -2.4688,-9.424231 -1.56047,-4.491064 -3.7398,-8.246588 -6.54172,-11.272998 -1.94302,-2.098694 -2.11339,-2.195042 -3.881386,-2.195042 H 98.070196 V 51.98386 63.512134 h 7.370534 c 4.0538,0 7.37054,-0.07392 7.37054,-0.164277 z m -44.293298,-51.908162 0.1189,-1.234643 -10.13025,0.100714 c -9.40534,0.09351 -10.13962,0.149347 -10.26098,0.780329 -0.32929,1.711919 0.19211,1.796013 10.47203,1.689012 l 9.68139,-0.10077 z"
       id="path3735"
       inkscape:connector-curvature="0" />
  </g>
</svg>
