<?xml version="1.0" encoding="UTF-8" standalone="no"?>
<svg
   xmlns:dc="http://purl.org/dc/elements/1.1/"
   xmlns:cc="http://creativecommons.org/ns#"
   xmlns:rdf="http://www.w3.org/1999/02/22-rdf-syntax-ns#"
   xmlns:svg="http://www.w3.org/2000/svg"
   xmlns="http://www.w3.org/2000/svg"
   xmlns:sodipodi="http://sodipodi.sourceforge.net/DTD/sodipodi-0.dtd"
   xmlns:inkscape="http://www.inkscape.org/namespaces/inkscape"
   width="12.855559mm"
   height="12.855559mm"
   viewBox="0 0 12.855559 12.855559"
   version="1.1"
   id="svg8"
   inkscape:version="1.0.1 (3bc2e813f5, 2020-09-07)"
   sodipodi:docname="VCF.svg">
  <defs
     id="defs2" />
  <sodipodi:namedview
     id="base"
     pagecolor="#ffffff"
     bordercolor="#666666"
     borderopacity="1.0"
     inkscape:pageopacity="0.0"
     inkscape:pageshadow="2"
     inkscape:zoom="3.959798"
     inkscape:cx="23.631345"
     inkscape:cy="14.674382"
     inkscape:document-units="mm"
     inkscape:current-layer="layer1"
     showgrid="false"
     fit-margin-top="0"
     fit-margin-left="0"
     fit-margin-right="0"
     fit-margin-bottom="0"
     inkscape:window-width="1920"
     inkscape:window-height="956"
     inkscape:window-x="1912"
     inkscape:window-y="18"
     inkscape:window-maximized="1"
     inkscape:document-rotation="0" />
  <metadata
     id="metadata5">
    <rdf:RDF>
      <cc:Work
         rdf:about="">
        <dc:format>image/svg+xml</dc:format>
        <dc:type
           rdf:resource="http://purl.org/dc/dcmitype/StillImage" />
        <dc:title></dc:title>
      </cc:Work>
    </rdf:RDF>
  </metadata>
  <g
     inkscape:label="Camada 1"
     inkscape:groupmode="layer"
     id="layer1"
     transform="translate(-38.414089,-55.885372)">
    <circle
       style="fill:#ffffff;stroke:#000000;stroke-width:0.327;stroke-miterlimit:4;stroke-dasharray:none;stroke-opacity:1;paint-order:stroke fill markers;stop-color:#000000"
       id="path885"
       cx="-12.330441"
       cy="75.680344"
       r="6.0135646"
       transform="rotate(-45)" />
    <path
       style="fill:#000000;stroke-width:0.0159679;paint-order:stroke fill markers;stop-color:#000000"
       d="m 40.326586,66.367088 c -0.587264,-0.694476 -0.96229,-1.351691 -1.227377,-2.150905 -0.701503,-2.114976 -0.242635,-4.405024 1.225112,-6.114111 l 0.211025,-0.245729 2.162952,2.162953 2.162955,2.162954 -0.907316,0.907363 c -0.499022,0.499052 -1.476481,1.491302 -2.172139,2.204992 l -1.264822,1.297631 -0.19039,-0.225151 z"
       id="path891" />
    <path
       style="fill:#000000;stroke-width:0.0160258;paint-order:stroke fill markers;stop-color:#000000"
       d="m 47.200271,64.518569 c -1.080133,-1.07997 -2.063059,-2.048381 -2.18422,-2.15209 l -0.220342,-0.188508 2.147047,-2.147048 2.147048,-2.147048 0.06794,0.06833 c 0.03735,0.0376 0.1564,0.179692 0.264517,0.315782 1.654583,2.082721 1.852961,4.916165 0.503132,7.186333 -0.154886,0.2605 -0.5854,0.851969 -0.712963,0.979533 -0.04746,0.04746 -0.08207,0.01451 -2.012165,-1.915292 z"
       id="path893" />
  </g>
</svg>
